<?xml version="1.0" encoding="UTF-8"?>
<!--
  Lucide-Icon-Sprite (ISC, lucide.dev).
  Verwendung: <svg class="icon"><use href="/icons.svg#NAME"/></svg>
  Stroke/Fill werden über die .icon-CSS-Klasse auf dem konsumierenden <svg>
  vererbt (Shadow-DOM inherit). Keine presentation attrs auf Pfaden noetig.
-->
<svg xmlns="http://www.w3.org/2000/svg" style="display:none" aria-hidden="true">
  <symbol id="chevron-right" viewBox="0 0 24 24"><path d="m9 18 6-6-6-6"/></symbol>
  <symbol id="chevron-left"  viewBox="0 0 24 24"><path d="m15 18-6-6 6-6"/></symbol>
  <symbol id="chevron-down"  viewBox="0 0 24 24"><path d="m6 9 6 6 6-6"/></symbol>
  <symbol id="chevron-up"    viewBox="0 0 24 24"><path d="m18 15-6-6-6 6"/></symbol>

  <symbol id="arrow-right" viewBox="0 0 24 24"><path d="M5 12h14"/><path d="m12 5 7 7-7 7"/></symbol>
  <symbol id="arrow-left"  viewBox="0 0 24 24"><path d="m12 19-7-7 7-7"/><path d="M19 12H5"/></symbol>
  <symbol id="arrow-up"    viewBox="0 0 24 24"><path d="m5 12 7-7 7 7"/><path d="M12 19V5"/></symbol>
  <symbol id="arrow-down"  viewBox="0 0 24 24"><path d="M12 5v14"/><path d="m19 12-7 7-7-7"/></symbol>

  <symbol id="check"  viewBox="0 0 24 24"><path d="M20 6 9 17l-5-5"/></symbol>
  <symbol id="circle" viewBox="0 0 24 24"><circle cx="12" cy="12" r="10"/></symbol>
  <symbol id="x"      viewBox="0 0 24 24"><path d="M18 6 6 18"/><path d="m6 6 12 12"/></symbol>
  <symbol id="plus"   viewBox="0 0 24 24"><path d="M5 12h14"/><path d="M12 5v14"/></symbol>
  <symbol id="minus"  viewBox="0 0 24 24"><path d="M5 12h14"/></symbol>

  <symbol id="maximize"   viewBox="0 0 24 24"><path d="M8 3H5a2 2 0 0 0-2 2v3"/><path d="M21 8V5a2 2 0 0 0-2-2h-3"/><path d="M3 16v3a2 2 0 0 0 2 2h3"/><path d="M16 21h3a2 2 0 0 0 2-2v-3"/></symbol>
  <symbol id="maximize-2" viewBox="0 0 24 24"><polyline points="15 3 21 3 21 9"/><polyline points="9 21 3 21 3 15"/><line x1="21" x2="14" y1="3" y2="10"/><line x1="3" x2="10" y1="21" y2="14"/></symbol>
  <symbol id="minimize-2" viewBox="0 0 24 24"><polyline points="4 14 10 14 10 20"/><polyline points="20 10 14 10 14 4"/><line x1="14" x2="21" y1="10" y2="3"/><line x1="3" x2="10" y1="21" y2="14"/></symbol>
  <symbol id="move-horizontal" viewBox="0 0 24 24"><path d="m18 8 4 4-4 4"/><path d="M2 12h20"/><path d="m6 8-4 4 4 4"/></symbol>
  <symbol id="separator-horizontal" viewBox="0 0 24 24"><circle cx="4" cy="12" r="1" fill="currentColor" stroke="none"/><line x1="8" x2="16" y1="12" y2="12"/><circle cx="20" cy="12" r="1" fill="currentColor" stroke="none"/></symbol>
  <symbol id="scan"       viewBox="0 0 24 24"><path d="M3 7V5a2 2 0 0 1 2-2h2"/><path d="M17 3h2a2 2 0 0 1 2 2v2"/><path d="M21 17v2a2 2 0 0 1-2 2h-2"/><path d="M7 21H5a2 2 0 0 1-2-2v-2"/></symbol>

  <symbol id="undo"  viewBox="0 0 24 24"><path d="M9 14 4 9l5-5"/><path d="M4 9h10.5a5.5 5.5 0 0 1 5.5 5.5 5.5 5.5 0 0 1-5.5 5.5H11"/></symbol>
  <symbol id="redo"  viewBox="0 0 24 24"><path d="m15 14 5-5-5-5"/><path d="M20 9H9.5A5.5 5.5 0 0 0 4 14.5 5.5 5.5 0 0 0 9.5 20H13"/></symbol>
  <symbol id="lock"  viewBox="0 0 24 24"><rect width="18" height="11" x="3" y="11" rx="2" ry="2"/><path d="M7 11V7a5 5 0 0 1 10 0v4"/></symbol>
  <symbol id="lock-open" viewBox="0 0 24 24"><rect width="18" height="11" x="3" y="11" rx="2" ry="2"/><path d="M7 11V7a5 5 0 0 1 9.9-1"/></symbol>

  <symbol id="search"    viewBox="0 0 24 24"><circle cx="11" cy="11" r="8"/><path d="m21 21-4.3-4.3"/></symbol>
  <symbol id="trash"     viewBox="0 0 24 24"><path d="M3 6h18"/><path d="M19 6v14a2 2 0 0 1-2 2H7a2 2 0 0 1-2-2V6"/><path d="M8 6V4a2 2 0 0 1 2-2h4a2 2 0 0 1 2 2v2"/><line x1="10" x2="10" y1="11" y2="17"/><line x1="14" x2="14" y1="11" y2="17"/></symbol>
  <symbol id="pencil"    viewBox="0 0 24 24"><path d="M21.174 6.812a1 1 0 0 0-3.986-3.987L3.842 16.174a2 2 0 0 0-.5.83l-1.321 4.352a.5.5 0 0 0 .623.622l4.353-1.32a2 2 0 0 0 .83-.497z"/><path d="m15 5 4 4"/></symbol>
  <symbol id="alert-triangle" viewBox="0 0 24 24"><path d="m21.73 18-8-14a2 2 0 0 0-3.48 0l-8 14A2 2 0 0 0 4 21h16a2 2 0 0 0 1.73-3"/><line x1="12" x2="12" y1="9" y2="13"/><line x1="12" x2="12.01" y1="17" y2="17"/></symbol>
  <symbol id="play"      viewBox="0 0 24 24"><polygon points="6 3 20 12 6 21 6 3"/></symbol>
  <symbol id="loader"    viewBox="0 0 24 24"><path d="M12 2v4"/><path d="m16.2 7.8 2.9-2.9"/><path d="M18 12h4"/><path d="m16.2 16.2 2.9 2.9"/><path d="M12 18v4"/><path d="m4.9 19.1 2.9-2.9"/><path d="M2 12h4"/><path d="m4.9 4.9 2.9 2.9"/></symbol>
  <symbol id="download"  viewBox="0 0 24 24"><path d="M21 15v4a2 2 0 0 1-2 2H5a2 2 0 0 1-2-2v-4"/><polyline points="7 10 12 15 17 10"/><line x1="12" x2="12" y1="15" y2="3"/></symbol>
  <symbol id="external-link" viewBox="0 0 24 24"><path d="M15 3h6v6"/><path d="M10 14 21 3"/><path d="M18 13v6a2 2 0 0 1-2 2H5a2 2 0 0 1-2-2V8a2 2 0 0 1 2-2h6"/></symbol>
  <symbol id="radio"     viewBox="0 0 24 24"><circle cx="12" cy="12" r="2"/><path d="M16.24 7.76a6 6 0 0 1 0 8.49m-8.48-.01a6 6 0 0 1 0-8.49m11.31-2.82a10 10 0 0 1 0 14.14m-14.14 0a10 10 0 0 1 0-14.14"/></symbol>
  <symbol id="quote"     viewBox="0 0 24 24"><path d="M16 3a2 2 0 0 0-2 2v6a2 2 0 0 0 2 2 1 1 0 0 1 1 1v1a2 2 0 0 1-2 2 1 1 0 0 0-1 1v2a1 1 0 0 0 1 1 6 6 0 0 0 6-6V5a2 2 0 0 0-2-2z"/><path d="M5 3a2 2 0 0 0-2 2v6a2 2 0 0 0 2 2 1 1 0 0 1 1 1v1a2 2 0 0 1-2 2 1 1 0 0 0-1 1v2a1 1 0 0 0 1 1 6 6 0 0 0 6-6V5a2 2 0 0 0-2-2z"/></symbol>
  <symbol id="calendar"  viewBox="0 0 24 24"><path d="M8 2v4"/><path d="M16 2v4"/><rect width="18" height="18" x="3" y="4" rx="2"/><path d="M3 10h18"/></symbol>
  <symbol id="list"      viewBox="0 0 24 24"><line x1="8" x2="21" y1="6" y2="6"/><line x1="8" x2="21" y1="12" y2="12"/><line x1="8" x2="21" y1="18" y2="18"/><line x1="3" x2="3.01" y1="6" y2="6"/><line x1="3" x2="3.01" y1="12" y2="12"/><line x1="3" x2="3.01" y1="18" y2="18"/></symbol>
  <symbol id="share-2"   viewBox="0 0 24 24"><circle cx="18" cy="5" r="3"/><circle cx="6" cy="12" r="3"/><circle cx="18" cy="19" r="3"/><line x1="8.59" x2="15.42" y1="13.51" y2="17.49"/><line x1="15.41" x2="8.59" y1="6.51" y2="10.49"/></symbol>

  <!-- Ereignis-Subtyp-Icons (Lucide). Mapping: public/js/cards/ereignisse-card.js#subtypIcon -->
  <symbol id="baby"        viewBox="0 0 24 24"><path d="M9 12h.01"/><path d="M15 12h.01"/><path d="M10 16c.5.3 1.2.5 2 .5s1.5-.2 2-.5"/><path d="M19 6.3a9 9 0 0 1 1.8 3.9 2 2 0 0 1 0 3.6 9 9 0 0 1-17.6 0 2 2 0 0 1 0-3.6A9 9 0 0 1 12 3c2 0 3.5 1.1 3.5 2.5s-.9 2.5-2 2.5c-.8 0-1.5-.4-1.5-1"/></symbol>
  <symbol id="skull"       viewBox="0 0 24 24"><path d="m12.5 17-.5-1-.5 1h1z"/><path d="M15 22a1 1 0 0 1-1-1v-1a2 2 0 0 0 1.56-3.25 8 8 0 1 0-7.12 0A2 2 0 0 0 10 20v1a1 1 0 0 1-1 1"/><circle cx="15" cy="12" r="1"/><circle cx="9" cy="12" r="1"/></symbol>
  <symbol id="heart"       viewBox="0 0 24 24"><path d="M19 14c1.49-1.46 3-3.21 3-5.5A5.5 5.5 0 0 0 16.5 3c-1.76 0-3 .5-4.5 2-1.5-1.5-2.74-2-4.5-2A5.5 5.5 0 0 0 2 8.5c0 2.3 1.5 4.05 3 5.5l7 7Z"/></symbol>
  <symbol id="plane"       viewBox="0 0 24 24"><path d="M17.8 19.2 16 11l3.5-3.5C21 6 21.5 4 21 3c-1-.5-3 0-4.5 1.5L13 8 4.8 6.2c-.5-.1-.9.1-1.1.5l-.3.5c-.2.5-.1 1 .3 1.3L9 12l-2 3H4l-1 1 3 2 2 3 1-1v-3l3-2 3.5 5.3c.3.4.8.5 1.3.3l.5-.2c.4-.3.6-.7.5-1.2z"/></symbol>
  <symbol id="swords"      viewBox="0 0 24 24"><polyline points="14.5 17.5 3 6 3 3 6 3 17.5 14.5"/><line x1="13" x2="19" y1="19" y2="13"/><line x1="16" x2="20" y1="16" y2="20"/><line x1="19" x2="21" y1="21" y2="19"/><polyline points="14.5 6.5 18 3 21 3 21 6 17.5 9.5"/><line x1="5" x2="9" y1="14" y2="18"/><line x1="7" x2="4" y1="17" y2="20"/><line x1="3" x2="5" y1="19" y2="21"/></symbol>
  <symbol id="git-fork"    viewBox="0 0 24 24"><circle cx="12" cy="18" r="3"/><circle cx="6" cy="6" r="3"/><circle cx="18" cy="6" r="3"/><path d="M18 9v2c0 .6-.4 1-1 1H7c-.6 0-1-.4-1-1V9"/><path d="M12 12v3"/></symbol>
  <symbol id="compass"     viewBox="0 0 24 24"><circle cx="12" cy="12" r="10"/><polygon points="16.24 7.76 14.12 14.12 7.76 16.24 9.88 9.88 16.24 7.76"/></symbol>
  <symbol id="heart-crack" viewBox="0 0 24 24"><path d="M19 14c1.49-1.46 3-3.21 3-5.5A5.5 5.5 0 0 0 16.5 3c-1.76 0-3 .5-4.5 2-1.5-1.5-2.74-2-4.5-2A5.5 5.5 0 0 0 2 8.5c0 2.3 1.5 4.05 3 5.5l7 7Z"/><path d="m12 6 .5 4-3 1.5 3 1.5L12 19"/></symbol>
  <symbol id="trophy"      viewBox="0 0 24 24"><path d="M6 9H4.5a2.5 2.5 0 0 1 0-5H6"/><path d="M18 9h1.5a2.5 2.5 0 0 0 0-5H18"/><path d="M4 22h16"/><path d="M10 14.66V17c0 .55-.47.98-.97 1.21C7.85 18.75 7 20.24 7 22"/><path d="M14 14.66V17c0 .55.47.98.97 1.21C16.15 18.75 17 20.24 17 22"/><path d="M18 2H6v7a6 6 0 0 0 12 0V2Z"/></symbol>
  <symbol id="landmark"    viewBox="0 0 24 24"><line x1="3" x2="21" y1="22" y2="22"/><line x1="6" x2="6" y1="18" y2="11"/><line x1="10" x2="10" y1="18" y2="11"/><line x1="14" x2="14" y1="18" y2="11"/><line x1="18" x2="18" y1="18" y2="11"/><polygon points="12 2 20 7 4 7"/></symbol>
  <symbol id="mountain"    viewBox="0 0 24 24"><path d="m8 3 4 8 5-5 5 15H2L8 3z"/></symbol>
  <symbol id="book-open"   viewBox="0 0 24 24"><path d="M2 3h6a4 4 0 0 1 4 4v14a3 3 0 0 0-3-3H2z"/><path d="M22 3h-6a4 4 0 0 0-4 4v14a3 3 0 0 1 3-3h7z"/></symbol>
  <symbol id="more-horizontal" viewBox="0 0 24 24"><circle cx="12" cy="12" r="1"/><circle cx="19" cy="12" r="1"/><circle cx="5" cy="12" r="1"/></symbol>
</svg>
