<?xml version="1.0" encoding="UTF-8"?>
<!--
  Lucide-Icon-Sprite (ISC, lucide.dev).
  Verwendung: <svg class="icon"><use href="/icons.svg#NAME"/></svg>
  Stroke/Fill werden über die .icon-CSS-Klasse auf dem konsumierenden <svg>
  vererbt (Shadow-DOM inherit). Keine presentation attrs auf Pfaden noetig.
-->
<svg xmlns="http://www.w3.org/2000/svg" style="display:none" aria-hidden="true">
  <symbol id="chevron-right" viewBox="0 0 24 24"><path d="m9 18 6-6-6-6"/></symbol>
  <symbol id="chevron-left"  viewBox="0 0 24 24"><path d="m15 18-6-6 6-6"/></symbol>
  <symbol id="chevron-down"  viewBox="0 0 24 24"><path d="m6 9 6 6 6-6"/></symbol>
  <symbol id="chevron-up"    viewBox="0 0 24 24"><path d="m18 15-6-6-6 6"/></symbol>

  <symbol id="arrow-right" viewBox="0 0 24 24"><path d="M5 12h14"/><path d="m12 5 7 7-7 7"/></symbol>
  <symbol id="arrow-left"  viewBox="0 0 24 24"><path d="m12 19-7-7 7-7"/><path d="M19 12H5"/></symbol>
  <symbol id="arrow-up"    viewBox="0 0 24 24"><path d="m5 12 7-7 7 7"/><path d="M12 19V5"/></symbol>
  <symbol id="arrow-down"  viewBox="0 0 24 24"><path d="M12 5v14"/><path d="m19 12-7 7-7-7"/></symbol>

  <symbol id="check"  viewBox="0 0 24 24"><path d="M20 6 9 17l-5-5"/></symbol>
  <symbol id="circle" viewBox="0 0 24 24"><circle cx="12" cy="12" r="10"/></symbol>
  <symbol id="x"      viewBox="0 0 24 24"><path d="M18 6 6 18"/><path d="m6 6 12 12"/></symbol>
  <symbol id="plus"   viewBox="0 0 24 24"><path d="M5 12h14"/><path d="M12 5v14"/></symbol>
  <symbol id="minus"  viewBox="0 0 24 24"><path d="M5 12h14"/></symbol>

  <symbol id="maximize"   viewBox="0 0 24 24"><path d="M8 3H5a2 2 0 0 0-2 2v3"/><path d="M21 8V5a2 2 0 0 0-2-2h-3"/><path d="M3 16v3a2 2 0 0 0 2 2h3"/><path d="M16 21h3a2 2 0 0 0 2-2v-3"/></symbol>
  <symbol id="maximize-2" viewBox="0 0 24 24"><polyline points="15 3 21 3 21 9"/><polyline points="9 21 3 21 3 15"/><line x1="21" x2="14" y1="3" y2="10"/><line x1="3" x2="10" y1="21" y2="14"/></symbol>
  <symbol id="minimize-2" viewBox="0 0 24 24"><polyline points="4 14 10 14 10 20"/><polyline points="20 10 14 10 14 4"/><line x1="14" x2="21" y1="10" y2="3"/><line x1="3" x2="10" y1="21" y2="14"/></symbol>
  <symbol id="move-horizontal" viewBox="0 0 24 24"><path d="m18 8 4 4-4 4"/><path d="M2 12h20"/><path d="m6 8-4 4 4 4"/></symbol>
  <symbol id="separator-horizontal" viewBox="0 0 24 24"><circle cx="4" cy="12" r="1" fill="currentColor" stroke="none"/><line x1="8" x2="16" y1="12" y2="12"/><circle cx="20" cy="12" r="1" fill="currentColor" stroke="none"/></symbol>
  <symbol id="scan"       viewBox="0 0 24 24"><path d="M3 7V5a2 2 0 0 1 2-2h2"/><path d="M17 3h2a2 2 0 0 1 2 2v2"/><path d="M21 17v2a2 2 0 0 1-2 2h-2"/><path d="M7 21H5a2 2 0 0 1-2-2v-2"/></symbol>

  <symbol id="undo"  viewBox="0 0 24 24"><path d="M9 14 4 9l5-5"/><path d="M4 9h10.5a5.5 5.5 0 0 1 5.5 5.5 5.5 5.5 0 0 1-5.5 5.5H11"/></symbol>
  <symbol id="redo"  viewBox="0 0 24 24"><path d="m15 14 5-5-5-5"/><path d="M20 9H9.5A5.5 5.5 0 0 0 4 14.5 5.5 5.5 0 0 0 9.5 20H13"/></symbol>

  <symbol id="search"    viewBox="0 0 24 24"><circle cx="11" cy="11" r="8"/><path d="m21 21-4.3-4.3"/></symbol>
  <symbol id="trash"     viewBox="0 0 24 24"><path d="M3 6h18"/><path d="M19 6v14a2 2 0 0 1-2 2H7a2 2 0 0 1-2-2V6"/><path d="M8 6V4a2 2 0 0 1 2-2h4a2 2 0 0 1 2 2v2"/><line x1="10" x2="10" y1="11" y2="17"/><line x1="14" x2="14" y1="11" y2="17"/></symbol>
  <symbol id="pencil"    viewBox="0 0 24 24"><path d="M21.174 6.812a1 1 0 0 0-3.986-3.987L3.842 16.174a2 2 0 0 0-.5.83l-1.321 4.352a.5.5 0 0 0 .623.622l4.353-1.32a2 2 0 0 0 .83-.497z"/><path d="m15 5 4 4"/></symbol>
  <symbol id="alert-triangle" viewBox="0 0 24 24"><path d="m21.73 18-8-14a2 2 0 0 0-3.48 0l-8 14A2 2 0 0 0 4 21h16a2 2 0 0 0 1.73-3"/><line x1="12" x2="12" y1="9" y2="13"/><line x1="12" x2="12.01" y1="17" y2="17"/></symbol>
  <symbol id="play"      viewBox="0 0 24 24"><polygon points="6 3 20 12 6 21 6 3"/></symbol>
  <symbol id="loader"    viewBox="0 0 24 24"><path d="M12 2v4"/><path d="m16.2 7.8 2.9-2.9"/><path d="M18 12h4"/><path d="m16.2 16.2 2.9 2.9"/><path d="M12 18v4"/><path d="m4.9 19.1 2.9-2.9"/><path d="M2 12h4"/><path d="m4.9 4.9 2.9 2.9"/></symbol>
  <symbol id="download"  viewBox="0 0 24 24"><path d="M21 15v4a2 2 0 0 1-2 2H5a2 2 0 0 1-2-2v-4"/><polyline points="7 10 12 15 17 10"/><line x1="12" x2="12" y1="15" y2="3"/></symbol>
  <symbol id="external-link" viewBox="0 0 24 24"><path d="M15 3h6v6"/><path d="M10 14 21 3"/><path d="M18 13v6a2 2 0 0 1-2 2H5a2 2 0 0 1-2-2V8a2 2 0 0 1 2-2h6"/></symbol>
  <symbol id="radio"     viewBox="0 0 24 24"><circle cx="12" cy="12" r="2"/><path d="M16.24 7.76a6 6 0 0 1 0 8.49m-8.48-.01a6 6 0 0 1 0-8.49m11.31-2.82a10 10 0 0 1 0 14.14m-14.14 0a10 10 0 0 1 0-14.14"/></symbol>
  <symbol id="quote"     viewBox="0 0 24 24"><path d="M16 3a2 2 0 0 0-2 2v6a2 2 0 0 0 2 2 1 1 0 0 1 1 1v1a2 2 0 0 1-2 2 1 1 0 0 0-1 1v2a1 1 0 0 0 1 1 6 6 0 0 0 6-6V5a2 2 0 0 0-2-2z"/><path d="M5 3a2 2 0 0 0-2 2v6a2 2 0 0 0 2 2 1 1 0 0 1 1 1v1a2 2 0 0 1-2 2 1 1 0 0 0-1 1v2a1 1 0 0 0 1 1 6 6 0 0 0 6-6V5a2 2 0 0 0-2-2z"/></symbol>
</svg>
